<svg width="1014" height="746" viewBox="0 0 1014 746" fill="none" xmlns="http://www.w3.org/2000/svg">
<g filter="url(#filter0_i_1062_21618)">
<path d="M545.5 296.5C553.902 279.916 555.756 270.002 557 252L518 328.5C529.091 320.384 535.191 314.299 545.5 296.5Z" fill="#186FB2"/>
</g>
<path d="M545.5 296.5C553.902 279.916 555.756 270.002 557 252L518 328.5C529.091 320.384 535.191 314.299 545.5 296.5Z" stroke="#186FB2"/>
<path d="M22.658 512.496C22.5182 511.086 21.918 509.991 20.8576 509.21C19.7971 508.429 18.3579 508.039 16.54 508.039C15.3047 508.039 14.2617 508.214 13.411 508.563C12.5603 508.901 11.9077 509.373 11.4532 509.979C11.0104 510.585 10.789 511.273 10.789 512.042C10.7657 512.683 10.8997 513.242 11.191 513.72C11.494 514.198 11.9077 514.611 12.4321 514.961C12.9565 515.299 13.5625 515.596 14.2501 515.853C14.9376 516.097 15.6718 516.307 16.4526 516.482L19.6689 517.251C21.2305 517.601 22.6639 518.067 23.9691 518.649C25.2743 519.232 26.4046 519.949 27.3602 520.799C28.3158 521.65 29.0558 522.652 29.5802 523.806C30.1163 524.96 30.3901 526.282 30.4018 527.774C30.3901 529.965 29.8308 531.864 28.7237 533.473C27.6283 535.069 26.0434 536.31 23.9691 537.196C21.9064 538.07 19.4184 538.507 16.505 538.507C13.6149 538.507 11.0978 538.064 8.95355 537.178C6.82096 536.293 5.15452 534.982 3.95421 533.245C2.76555 531.497 2.14209 529.336 2.08382 526.76H9.40804C9.48961 527.961 9.83339 528.963 10.4394 529.767C11.057 530.559 11.8786 531.159 12.9041 531.567C13.9412 531.963 15.1124 532.162 16.4176 532.162C17.6995 532.162 18.8124 531.975 19.7563 531.602C20.7119 531.229 21.4519 530.711 21.9763 530.046C22.5007 529.382 22.7629 528.619 22.7629 527.757C22.7629 526.952 22.524 526.277 22.0462 525.729C21.5801 525.181 20.8925 524.715 19.9836 524.33C19.0863 523.946 17.985 523.596 16.6798 523.282L12.7817 522.303C9.76347 521.569 7.38033 520.421 5.63231 518.859C3.88429 517.298 3.0161 515.194 3.02775 512.549C3.0161 510.381 3.59295 508.488 4.7583 506.868C5.9353 505.248 7.54931 503.983 9.60032 503.075C11.6513 502.166 13.982 501.711 16.5924 501.711C19.2494 501.711 21.5684 502.166 23.5495 503.075C25.5423 503.983 27.0922 505.248 28.1993 506.868C29.3064 508.488 29.8774 510.364 29.9123 512.496H22.658ZM34.1294 508.441V502.201H63.5312V508.441H52.5711V538H45.0895V508.441H34.1294ZM68.3732 538V502.201H82.4972C85.2008 502.201 87.5082 502.684 89.4194 503.651C91.3422 504.607 92.8047 505.965 93.8069 507.724C94.8208 509.472 95.3277 511.529 95.3277 513.895C95.3277 516.272 94.815 518.317 93.7894 520.03C92.7639 521.732 91.2781 523.037 89.332 523.946C87.3975 524.855 85.0552 525.309 82.3049 525.309H72.8481V519.226H81.0813C82.5264 519.226 83.7267 519.028 84.6822 518.632C85.6378 518.236 86.3487 517.641 86.8148 516.849C87.2926 516.056 87.5315 515.072 87.5315 513.895C87.5315 512.706 87.2926 511.704 86.8148 510.888C86.3487 510.072 85.632 509.455 84.6648 509.035C83.7092 508.604 82.503 508.389 81.0464 508.389H75.9421V538H68.3732ZM87.7063 521.708L96.6038 538H88.2482L79.5431 521.708H87.7063ZM106.847 538H98.7363L111.095 502.201H120.849L133.19 538H125.079L116.112 510.381H115.832L106.847 538ZM106.34 523.928H125.499V529.837H106.34V523.928ZM131.761 508.441V502.201H161.163V508.441H150.202V538H142.721V508.441H131.761ZM166.005 538V502.201H190.127V508.441H173.574V516.971H188.886V523.212H173.574V531.76H190.197V538H166.005ZM219.883 513.772C219.638 512.922 219.295 512.17 218.852 511.517C218.409 510.853 217.867 510.294 217.226 509.839C216.597 509.373 215.874 509.018 215.058 508.773C214.254 508.528 213.363 508.406 212.384 508.406C210.554 508.406 208.946 508.86 207.559 509.769C206.184 510.678 205.112 512.001 204.343 513.737C203.574 515.462 203.189 517.571 203.189 520.065C203.189 522.559 203.568 524.68 204.326 526.428C205.083 528.176 206.155 529.51 207.542 530.431C208.929 531.34 210.566 531.795 212.454 531.795C214.167 531.795 215.63 531.492 216.841 530.886C218.065 530.268 218.997 529.4 219.638 528.281C220.291 527.162 220.617 525.84 220.617 524.313L222.155 524.54H212.926V518.842H227.906V523.352C227.906 526.498 227.242 529.202 225.914 531.462C224.585 533.712 222.756 535.448 220.425 536.672C218.094 537.883 215.426 538.489 212.419 538.489C209.063 538.489 206.114 537.749 203.574 536.269C201.034 534.778 199.052 532.663 197.631 529.924C196.221 527.174 195.516 523.911 195.516 520.135C195.516 517.233 195.935 514.646 196.774 512.374C197.625 510.09 198.814 508.155 200.34 506.571C201.867 504.986 203.644 503.78 205.672 502.952C207.699 502.125 209.896 501.711 212.262 501.711C214.289 501.711 216.177 502.008 217.925 502.603C219.673 503.185 221.223 504.013 222.575 505.085C223.938 506.157 225.051 507.433 225.914 508.913C226.776 510.381 227.33 512.001 227.574 513.772H219.883ZM241.161 502.201V538H233.592V502.201H241.161ZM247.004 538V533.508L264.868 508.441H246.969V502.201H274.378V506.693L256.495 531.76H274.413V538H247.004ZM287.789 502.201V538H280.22V502.201H287.789ZM323.96 502.201V538H317.423L301.848 515.468H301.586V538H294.017V502.201H300.659L316.112 524.715H316.426V502.201H323.96ZM353.952 513.772C353.707 512.922 353.363 512.17 352.921 511.517C352.478 510.853 351.936 510.294 351.295 509.839C350.666 509.373 349.943 509.018 349.127 508.773C348.323 508.528 347.432 508.406 346.453 508.406C344.623 508.406 343.015 508.86 341.628 509.769C340.253 510.678 339.181 512.001 338.412 513.737C337.643 515.462 337.258 517.571 337.258 520.065C337.258 522.559 337.637 524.68 338.395 526.428C339.152 528.176 340.224 529.51 341.611 530.431C342.998 531.34 344.635 531.795 346.523 531.795C348.236 531.795 349.698 531.492 350.91 530.886C352.134 530.268 353.066 529.4 353.707 528.281C354.36 527.162 354.686 525.84 354.686 524.313L356.224 524.54H346.995V518.842H361.975V523.352C361.975 526.498 361.311 529.202 359.983 531.462C358.654 533.712 356.825 535.448 354.494 536.672C352.163 537.883 349.495 538.489 346.488 538.489C343.132 538.489 340.183 537.749 337.643 536.269C335.102 534.778 333.121 532.663 331.7 529.924C330.29 527.174 329.585 523.911 329.585 520.135C329.585 517.233 330.004 514.646 330.843 512.374C331.694 510.09 332.882 508.155 334.409 506.571C335.936 504.986 337.713 503.78 339.741 502.952C341.768 502.125 343.965 501.711 346.331 501.711C348.358 501.711 350.246 502.008 351.994 502.603C353.742 503.185 355.292 504.013 356.644 505.085C358.007 506.157 359.12 507.433 359.983 508.913C360.845 510.381 361.399 512.001 361.643 513.772H353.952ZM387.112 538L376.869 502.201H385.137L391.062 527.075H391.36L397.897 502.201H404.977L411.497 527.127H411.811L417.737 502.201H426.005L415.762 538H408.385L401.568 514.594H401.288L394.489 538H387.112ZM430.056 538V502.201H454.179V508.441H437.625V516.971H452.938V523.212H437.625V531.76H454.249V538H430.056ZM466.367 538H458.256L470.615 502.201H480.369L492.71 538H484.599L475.632 510.381H475.352L466.367 538ZM465.86 523.928H485.019V529.837H465.86V523.928ZM497.019 538V502.201H504.588V531.76H519.935V538H497.019ZM519.114 508.441V502.201H548.516V508.441H537.556V538H530.074V508.441H519.114ZM553.358 538V502.201H560.927V516.971H576.292V502.201H583.843V538H576.292V523.212H560.927V538H553.358ZM598.037 533.106L597.845 535.028C597.693 536.567 597.402 538.099 596.971 539.626C596.551 541.164 596.108 542.557 595.642 543.803C595.188 545.05 594.821 546.029 594.541 546.74H589.717C589.891 546.053 590.13 545.091 590.433 543.856C590.736 542.632 591.022 541.257 591.29 539.731C591.558 538.204 591.727 536.648 591.797 535.063L591.884 533.106H598.037ZM109.209 564.496C109.069 563.086 108.469 561.991 107.409 561.21C106.348 560.429 104.909 560.039 103.091 560.039C101.856 560.039 100.813 560.214 99.9621 560.563C99.1114 560.901 98.4588 561.373 98.0044 561.979C97.5615 562.585 97.3401 563.273 97.3401 564.042C97.3168 564.683 97.4508 565.242 97.7422 565.72C98.0451 566.198 98.4588 566.611 98.9832 566.961C99.5077 567.299 100.114 567.596 100.801 567.853C101.489 568.097 102.223 568.307 103.004 568.482L106.22 569.251C107.782 569.601 109.215 570.067 110.52 570.649C111.825 571.232 112.956 571.949 113.911 572.799C114.867 573.65 115.607 574.652 116.131 575.806C116.667 576.96 116.941 578.282 116.953 579.774C116.941 581.965 116.382 583.864 115.275 585.473C114.179 587.069 112.595 588.31 110.52 589.196C108.458 590.07 105.97 590.507 103.056 590.507C100.166 590.507 97.6489 590.064 95.5047 589.178C93.3721 588.293 91.7056 586.982 90.5053 585.245C89.3167 583.497 88.6932 581.336 88.635 578.76H95.9592C96.0407 579.961 96.3845 580.963 96.9905 581.767C97.6081 582.559 98.4297 583.159 99.4552 583.567C100.492 583.963 101.664 584.162 102.969 584.162C104.251 584.162 105.364 583.975 106.307 583.602C107.263 583.229 108.003 582.711 108.527 582.046C109.052 581.382 109.314 580.619 109.314 579.757C109.314 578.952 109.075 578.277 108.597 577.729C108.131 577.181 107.444 576.715 106.535 576.33C105.637 575.946 104.536 575.596 103.231 575.282L99.3329 574.303C96.3146 573.569 93.9315 572.421 92.1834 570.859C90.4354 569.298 89.5672 567.194 89.5789 564.549C89.5672 562.381 90.1441 560.488 91.3094 558.868C92.4864 557.248 94.1004 555.983 96.1515 555.075C98.2025 554.166 100.533 553.711 103.144 553.711C105.801 553.711 108.12 554.166 110.101 555.075C112.093 555.983 113.643 557.248 114.75 558.868C115.857 560.488 116.429 562.364 116.463 564.496H109.209ZM129.613 554.201V590H122.044V554.201H129.613ZM135.84 554.201H145.175L155.034 578.253H155.453L165.312 554.201H174.646V590H167.305V566.699H167.008L157.743 589.825H152.744L143.479 566.611H143.182V590H135.84V554.201ZM180.882 590V554.201H195.006C197.722 554.201 200.035 554.719 201.946 555.756C203.857 556.782 205.314 558.209 206.316 560.039C207.33 561.857 207.837 563.954 207.837 566.332C207.837 568.709 207.324 570.807 206.299 572.625C205.273 574.443 203.787 575.858 201.841 576.872C199.907 577.886 197.564 578.393 194.814 578.393H185.812V572.327H193.591C195.047 572.327 196.248 572.077 197.192 571.576C198.147 571.063 198.858 570.358 199.324 569.461C199.802 568.552 200.041 567.509 200.041 566.332C200.041 565.143 199.802 564.106 199.324 563.22C198.858 562.323 198.147 561.63 197.192 561.14C196.236 560.639 195.024 560.389 193.556 560.389H188.451V590H180.882ZM212.753 590V554.201H220.322V583.76H235.67V590H212.753ZM248.251 554.201V590H240.682V554.201H248.251ZM254.479 590V554.201H278.182V560.441H262.048V568.971H276.609V575.212H262.048V590H254.479ZM281.175 554.201H289.653L297.816 569.618H298.166L306.329 554.201H314.807L301.749 577.344V590H294.233V577.344L281.175 554.201ZM326.51 554.201V590H318.941V554.201H326.51ZM362.681 554.201V590H356.144L340.569 567.468H340.306V590H332.738V554.201H339.38L354.833 576.715H355.147V554.201H362.681ZM392.673 565.772C392.428 564.922 392.084 564.17 391.642 563.517C391.199 562.853 390.657 562.294 390.016 561.839C389.387 561.373 388.664 561.018 387.848 560.773C387.044 560.528 386.153 560.406 385.174 560.406C383.344 560.406 381.736 560.86 380.349 561.769C378.974 562.678 377.902 564.001 377.133 565.737C376.364 567.462 375.979 569.571 375.979 572.065C375.979 574.559 376.358 576.68 377.115 578.428C377.873 580.176 378.945 581.51 380.332 582.431C381.719 583.34 383.356 583.795 385.244 583.795C386.957 583.795 388.419 583.492 389.631 582.886C390.855 582.268 391.787 581.4 392.428 580.281C393.081 579.162 393.407 577.84 393.407 576.313L394.945 576.54H385.716V570.842H400.696V575.352C400.696 578.498 400.032 581.202 398.704 583.462C397.375 585.712 395.545 587.448 393.215 588.672C390.884 589.883 388.215 590.489 385.209 590.489C381.853 590.489 378.904 589.749 376.364 588.269C373.823 586.778 371.842 584.663 370.421 581.924C369.01 579.174 368.305 575.911 368.305 572.135C368.305 569.233 368.725 566.646 369.564 564.374C370.415 562.09 371.603 560.155 373.13 558.571C374.657 556.986 376.434 555.78 378.461 554.952C380.489 554.125 382.686 553.711 385.051 553.711C387.079 553.711 388.967 554.008 390.715 554.603C392.463 555.185 394.013 556.013 395.365 557.085C396.728 558.157 397.841 559.433 398.704 560.913C399.566 562.381 400.119 564.001 400.364 565.772H392.673ZM417.774 590V554.201H425.343V583.76H440.691V590H417.774ZM453.272 554.201V590H445.703V554.201H453.272ZM459.5 590V554.201H483.203V560.441H467.069V568.971H481.63V575.212H467.069V590H459.5ZM488.294 590V554.201H512.417V560.441H495.863V568.971H511.176V575.212H495.863V583.76H512.487V590H488.294Z" fill="#186FB2"/>
<g filter="url(#filter1_i_1062_21618)">
<path d="M930 1L699 100.5L800.5 146.5L715.5 320C709.427 331.436 710 335 717 339C724 343 728.153 340.927 733 333.5L758.5 285.5C764.848 274.502 770 272 777.5 276.5C785 281 784.382 285.794 779 294.5L738 372.5C733.303 383.288 733 389 740 393C747 397 751.912 394.346 757 386.5L792 320C799.956 305.755 803 303 812 307C821 311 820.254 316.984 814 328.5L784.5 383.5C776.391 395.727 777 402.5 784.5 406.5C792 410.5 796.905 407.068 803 396L908.5 194L1013 239L930 1Z" fill="#186FB2"/>
</g>
<path d="M930 1L699 100.5L800.5 146.5L715.5 320C709.427 331.436 710 335 717 339C724 343 728.153 340.927 733 333.5L758.5 285.5C764.848 274.502 770 272 777.5 276.5C785 281 784.382 285.794 779 294.5L738 372.5C733.303 383.288 733 389 740 393C747 397 751.912 394.346 757 386.5L792 320C799.956 305.755 803 303 812 307C821 311 820.254 316.984 814 328.5L784.5 383.5C776.391 395.727 777 402.5 784.5 406.5C792 410.5 796.905 407.068 803 396L908.5 194L1013 239L930 1Z" stroke="#186FB2"/>
<g filter="url(#filter2_i_1062_21618)">
<path d="M381 349.5L419 272.5H243V484.5H322.5V349.5H381Z" fill="#186FB2"/>
</g>
<path d="M381 349.5L419 272.5H243V484.5H322.5V349.5H381Z" stroke="#186FB2"/>
<g filter="url(#filter3_i_1062_21618)">
<path d="M476.5 251.5C483.3 224.7 461 215.333 449 214L419.5 272C435.667 276.333 469.7 278.3 476.5 251.5Z" fill="#186FB2"/>
</g>
<path d="M476.5 251.5C483.3 224.7 461 215.333 449 214L419.5 272C435.667 276.333 469.7 278.3 476.5 251.5Z" stroke="#186FB2"/>
<g filter="url(#filter4_i_1062_21618)">
<path d="M243 136.504V213.504H448.5L466 181.5C475.5 163.5 477.463 156.782 502 146.004C480.914 137.477 481 136.5 429.5 136.504C378 136.508 243 136.504 243 136.504Z" fill="#186FB2"/>
</g>
<path d="M243 136.504V213.504H448.5L466 181.5C475.5 163.5 477.463 156.782 502 146.004C480.914 137.477 481 136.5 429.5 136.504C378 136.508 243 136.504 243 136.504Z" stroke="#186FB2"/>
<g filter="url(#filter5_i_1062_21618)">
<path d="M83 136H3V485H83V348.5H237.5V272H83V136Z" fill="#186FB2"/>
</g>
<path d="M83 136H3V485H83V348.5H237.5V272H83V136Z" stroke="#186FB2"/>
<g filter="url(#filter6_i_1062_21618)">
<path d="M556.999 249.495C554.999 194.995 539.832 169.816 502.999 146.495C601.173 120.826 632.85 140.24 659.5 218.495C682 277.495 677.003 329.93 696.5 416.495C712 469.495 744.031 479.763 774.5 452.995L650.999 693.495C594.45 782.591 461.157 744.424 468.499 666.495C493.499 698.495 530.659 699.589 550.999 645.495L633.999 480.995C601.597 469.483 591.282 447.664 583.499 387.995C542.311 391.11 527.499 387.995 524.999 363.995C522.499 339.995 533.642 328.642 574.999 329.995L563.499 237.495L556.999 249.495Z" fill="#186FB2"/>
</g>
<path d="M556.999 249.495C554.999 194.995 539.832 169.816 502.999 146.495C601.173 120.826 632.85 140.24 659.5 218.495C682 277.495 677.003 329.93 696.5 416.495C712 469.495 744.031 479.763 774.5 452.995L650.999 693.495C594.45 782.591 461.157 744.424 468.499 666.495C493.499 698.495 530.659 699.589 550.999 645.495L633.999 480.995C601.597 469.483 591.282 447.664 583.499 387.995C542.311 391.11 527.499 387.995 524.999 363.995C522.499 339.995 533.642 328.642 574.999 329.995L563.499 237.495L556.999 249.495Z" stroke="#186FB2"/>
<g filter="url(#filter7_i_1062_21618)">
<path d="M427.5 349.5C471.35 350.124 492.104 347.167 516.5 331L463.5 439.5C457.248 451.288 450.5 452.5 444 449C437.5 445.5 437.689 439.426 442.5 430L474 366.5C476.822 358.273 476.042 354.599 467.5 351C459.195 349.189 455.658 350.82 451.5 360L417.5 428.5C411.974 438.764 408.041 441.056 399 436.5C392.802 431.331 392.579 427.112 397.5 417.5C413.677 385.955 429.721 360.451 427.5 349.5H406L380 400C376.262 406.667 373.398 408.839 365 406C356.741 402.287 357.072 398.495 360 391L380 349.5H406C408.575 344.417 410.5 343 416.5 342.5C422.5 342 427.492 346.515 427.5 349.5Z" fill="#186FB2"/>
</g>
<path d="M427.5 349.5C471.35 350.124 492.104 347.167 516.5 331L463.5 439.5C457.248 451.288 450.5 452.5 444 449C437.5 445.5 437.689 439.426 442.5 430L474 366.5C476.822 358.273 476.042 354.599 467.5 351C459.195 349.189 455.658 350.82 451.5 360L417.5 428.5C411.974 438.764 408.041 441.056 399 436.5C392.802 431.331 392.579 427.112 397.5 417.5C413.677 385.955 429.721 360.451 427.5 349.5ZM427.5 349.5H406M427.5 349.5C427.492 346.515 422.5 342 416.5 342.5C410.5 343 408.575 344.417 406 349.5M406 349.5H380L360 391C357.072 398.495 356.741 402.287 365 406C373.398 408.839 376.262 406.667 380 400L406 349.5Z" stroke="#186FB2"/>
<g clip-path="url(#clip0_1062_21618)">
<path d="M910.966 74.5895C910.995 71.9211 909.526 69.3405 906.955 68.0863L898.692 64.0552L900.484 60.3828L922.518 71.1326L920.726 74.805L914.74 71.8846C915.102 73.3796 915.154 74.9507 914.877 76.4976L918.935 78.4773L917.143 82.1497L913.434 80.3401C910.467 85.2575 904.163 87.1829 898.893 84.6119L897.552 83.958L903.639 102.84L898.553 100.359L892.466 81.4766L894.258 77.8042L900.684 80.9396C903.916 82.5162 907.761 81.4371 909.725 78.5306L895.109 71.3999L896.901 67.7275L910.966 74.5895Z" fill="#4B91C4"/>
</g>
<g clip-path="url(#clip1_1062_21618)">
<path d="M807.311 74.5895C807.34 71.9211 805.871 69.3405 803.3 68.0863L795.037 64.0552L796.829 60.3828L818.863 71.1326L817.072 74.805L811.086 71.8846C811.447 73.3796 811.499 74.9507 811.222 76.4976L815.28 78.4773L813.488 82.1497L809.779 80.3401C806.812 85.2575 800.508 87.1829 795.238 84.6119L793.898 83.958L799.984 102.84L794.898 100.359L788.811 81.4766L790.603 77.8042L797.03 80.9396C800.261 82.5162 804.107 81.4371 806.07 78.5306L791.454 71.3999L793.246 67.7275L807.311 74.5895Z" fill="#4B91C4"/>
</g>
<g clip-path="url(#clip2_1062_21618)">
<path d="M840.311 144.589C840.34 141.921 838.871 139.34 836.3 138.086L828.037 134.055L829.829 130.383L851.863 141.133L850.072 144.805L844.086 141.885C844.447 143.38 844.499 144.951 844.222 146.498L848.28 148.477L846.488 152.15L842.779 150.34C839.812 155.257 833.508 157.183 828.238 154.612L826.898 153.958L832.984 172.84L827.898 170.359L821.811 151.477L823.603 147.804L830.03 150.94C833.261 152.516 837.107 151.437 839.07 148.531L824.454 141.4L826.246 137.728L840.311 144.589Z" fill="#4B91C4"/>
</g>
<g clip-path="url(#clip3_1062_21618)">
<path d="M951.311 177.589C951.34 174.921 949.871 172.34 947.3 171.086L939.037 167.055L940.829 163.383L962.863 174.133L961.072 177.805L955.086 174.885C955.447 176.38 955.499 177.951 955.222 179.498L959.28 181.477L957.488 185.15L953.779 183.34C950.812 188.257 944.508 190.183 939.238 187.612L937.898 186.958L943.984 205.84L938.898 203.359L932.811 184.477L934.603 180.804L941.03 183.94C944.261 185.516 948.107 184.437 950.07 181.531L935.454 174.4L937.246 170.728L951.311 177.589Z" fill="#4B91C4"/>
</g>
<g clip-path="url(#clip4_1062_21618)">
<path d="M877.311 234.589C877.34 231.921 875.871 229.34 873.3 228.086L865.037 224.055L866.829 220.383L888.863 231.133L887.072 234.805L881.086 231.885C881.447 233.38 881.499 234.951 881.222 236.498L885.28 238.477L883.488 242.15L879.779 240.34C876.812 245.257 870.508 247.183 865.238 244.612L863.898 243.958L869.984 262.84L864.898 260.359L858.811 241.477L860.603 237.804L867.03 240.94C870.261 242.516 874.107 241.437 876.07 238.531L861.454 231.4L863.246 227.728L877.311 234.589Z" fill="#4B91C4"/>
</g>
<g clip-path="url(#clip5_1062_21618)">
<path d="M777.311 237.589C777.34 234.921 775.871 232.34 773.3 231.086L765.037 227.055L766.829 223.383L788.863 234.133L787.072 237.805L781.086 234.885C781.447 236.38 781.499 237.951 781.222 239.498L785.28 241.477L783.488 245.15L779.779 243.34C776.812 248.257 770.508 250.183 765.238 247.612L763.898 246.958L769.984 265.84L764.898 263.359L758.811 244.477L760.603 240.804L767.03 243.94C770.261 245.516 774.107 244.437 776.07 241.531L761.454 234.4L763.246 230.728L777.311 237.589Z" fill="#4B91C4"/>
</g>
<g clip-path="url(#clip6_1062_21618)">
<path d="M760.311 422.589C760.34 419.921 758.871 417.34 756.3 416.086L748.037 412.055L749.829 408.383L771.863 419.133L770.072 422.805L764.086 419.885C764.447 421.38 764.499 422.951 764.222 424.498L768.28 426.477L766.488 430.15L762.779 428.34C759.812 433.257 753.508 435.183 748.238 432.612L746.898 431.958L752.984 450.84L747.898 448.359L741.811 429.477L743.603 425.804L750.03 428.94C753.261 430.516 757.107 429.437 759.07 426.531L744.454 419.4L746.246 415.728L760.311 422.589Z" fill="#186FB2"/>
</g>
<g clip-path="url(#clip7_1062_21618)">
<path d="M720.311 366.589C720.34 363.921 718.871 361.34 716.3 360.086L708.037 356.055L709.829 352.383L731.863 363.133L730.072 366.805L724.086 363.885C724.447 365.38 724.499 366.951 724.222 368.498L728.28 370.477L726.488 374.15L722.779 372.34C719.812 377.257 713.508 379.183 708.238 376.612L706.898 375.958L712.984 394.84L707.898 392.359L701.811 373.477L703.603 369.804L710.03 372.94C713.261 374.516 717.107 373.437 719.07 370.531L704.454 363.4L706.246 359.728L720.311 366.589Z" fill="#186FB2"/>
</g>
<path d="M568.852 146.904C567.851 144.874 565.75 143.486 563.324 143.524L555.529 143.644L555.475 140.18L576.263 139.857L576.317 143.322L570.67 143.41C571.517 144.402 572.159 145.57 572.542 146.846L576.371 146.787L576.425 150.252L572.925 150.306C572.567 155.163 568.538 159.038 563.566 159.115L562.301 159.135L574.148 171.081L569.35 171.155L557.503 159.209L557.449 155.744L563.512 155.65C566.561 155.603 569.056 153.312 569.426 150.36L555.636 150.574L555.582 147.109L568.852 146.904Z" fill="#4B91C4"/>
<path d="M646.46 209.646C645.139 207.809 642.838 206.785 640.452 207.22L632.782 208.62L632.16 205.211L652.613 201.478L653.235 204.887L647.679 205.901C648.677 206.74 649.503 207.787 650.091 208.983L653.857 208.296L654.48 211.705L651.037 212.333C651.481 217.183 648.143 221.667 643.252 222.56L642.007 222.787L655.656 232.625L650.934 233.486L637.286 223.649L636.664 220.24L642.629 219.151C645.629 218.604 647.713 215.934 647.594 212.962L634.026 215.438L633.404 212.029L646.46 209.646Z" fill="#4B91C4"/>
<path d="M576.841 217.889C575.841 215.859 573.742 214.469 571.316 214.504L563.52 214.617L563.47 211.152L584.259 210.85L584.309 214.315L578.662 214.397C579.508 215.39 580.149 216.559 580.531 217.836L584.36 217.78L584.41 221.245L580.91 221.296C580.548 226.153 576.515 230.023 571.543 230.096L570.278 230.114L582.113 242.071L577.315 242.141L565.479 230.184L565.429 226.719L571.492 226.631C574.541 226.586 577.038 224.298 577.411 221.346L563.621 221.547L563.571 218.082L576.841 217.889Z" fill="#4B91C4"/>
<path d="M653.841 279.889C652.841 277.859 650.742 276.469 648.316 276.504L640.52 276.617L640.47 273.152L661.259 272.85L661.309 276.315L655.662 276.397C656.508 277.39 657.149 278.559 657.531 279.836L661.36 279.78L661.41 283.245L657.91 283.296C657.548 288.153 653.515 292.023 648.543 292.096L647.278 292.114L659.113 304.071L654.315 304.141L642.479 292.184L642.429 288.719L648.492 288.631C651.541 288.586 654.038 286.298 654.411 283.346L640.621 283.547L640.571 280.082L653.841 279.889Z" fill="#4B91C4"/>
<path d="M590.841 321.889C589.841 319.859 587.742 318.469 585.316 318.504L577.52 318.617L577.47 315.152L598.259 314.85L598.309 318.315L592.662 318.397C593.508 319.39 594.149 320.559 594.531 321.836L598.36 321.78L598.41 325.245L594.91 325.296C594.548 330.153 590.515 334.023 585.543 334.096L584.278 334.114L596.113 346.071L591.315 346.141L579.479 334.184L579.429 330.719L585.492 330.631C588.541 330.586 591.038 328.298 591.411 325.346L577.621 325.547L577.571 322.082L590.841 321.889Z" fill="#4B91C4"/>
<path d="M643.841 368.889C642.841 366.859 640.742 365.469 638.316 365.504L630.52 365.617L630.47 362.152L651.259 361.85L651.309 365.315L645.662 365.397C646.508 366.39 647.149 367.559 647.531 368.836L651.36 368.78L651.41 372.245L647.91 372.296C647.548 377.153 643.515 381.023 638.543 381.096L637.278 381.114L649.113 393.071L644.315 393.141L632.479 381.184L632.429 377.719L638.492 377.631C641.541 377.586 644.038 375.298 644.411 372.346L630.621 372.547L630.571 369.082L643.841 368.889Z" fill="#4B91C4"/>
<path d="M685.269 434.927C684.414 432.832 682.417 431.298 679.995 431.163L672.211 430.729L672.403 427.27L693.162 428.426L692.969 431.886L687.33 431.572C688.104 432.621 688.662 433.832 688.954 435.133L692.777 435.346L692.584 438.806L689.09 438.611C688.387 443.431 684.093 447.009 679.128 446.732L677.865 446.662L688.833 459.42L684.041 459.153L673.073 446.395L673.266 442.935L679.32 443.272C682.365 443.442 685.016 441.334 685.595 438.416L671.825 437.649L672.018 434.189L685.269 434.927Z" fill="#4B91C4"/>
<g clip-path="url(#clip8_1062_21618)">
<path d="M612.367 441.945C610.766 440.346 608.33 439.707 606.046 440.522L598.703 443.142L597.538 439.879L617.119 432.891L618.284 436.154L612.964 438.053C614.085 438.72 615.069 439.62 615.843 440.705L619.449 439.418L620.613 442.681L617.317 443.858C618.54 448.572 615.97 453.537 611.287 455.208L610.096 455.633L625.154 463.136L620.634 464.75L605.576 457.246L604.411 453.983L610.122 451.944C612.994 450.919 614.619 447.948 614.021 445.034L601.032 449.67L599.867 446.406L612.367 441.945Z" fill="#4B91C4"/>
</g>
<g clip-path="url(#clip9_1062_21618)">
<path d="M392.384 459.974C392.437 457.712 391.219 455.508 389.052 454.417L382.088 450.911L383.646 447.816L402.217 457.166L400.659 460.261L395.614 457.721C395.905 458.992 395.932 460.325 395.68 461.634L399.1 463.356L397.542 466.451L394.416 464.877C391.848 469.015 386.482 470.581 382.04 468.345L380.91 467.777L385.872 483.853L381.585 481.695L376.624 465.618L378.182 462.523L383.598 465.25C386.322 466.621 389.594 465.747 391.29 463.303L378.972 457.102L380.53 454.007L392.384 459.974Z" fill="#186FB2"/>
</g>
<g clip-path="url(#clip10_1062_21618)">
<path d="M835.033 324.303C835.058 321.985 833.781 319.742 831.547 318.652L824.367 315.149L825.924 311.957L845.073 321.299L843.516 324.491L838.313 321.953C838.628 323.252 838.673 324.617 838.432 325.962L841.958 327.682L840.401 330.874L837.178 329.301C834.599 333.575 829.121 335.248 824.541 333.014L823.376 332.445L828.666 348.855L824.245 346.698L818.956 330.289L820.513 327.097L826.098 329.822C828.906 331.192 832.248 330.254 833.955 327.729L821.252 321.532L822.81 318.34L835.033 324.303Z" fill="#4B91C4"/>
</g>
<g filter="url(#filter8_i_1062_21618)">
<path d="M377.501 418.508C376.163 417.607 366 413.5 364.501 417.008C363.002 420.516 362.808 422.158 370.501 427.503C378.125 431.724 382.502 431.013 384.001 429.008C385.501 427.003 385.183 424.225 377.501 418.508Z" fill="#186FB2"/>
</g>
<path d="M377.501 418.508C376.163 417.607 366 413.5 364.501 417.008C363.002 420.516 362.808 422.158 370.501 427.503C378.125 431.724 382.502 431.013 384.001 429.008C385.501 427.003 385.183 424.225 377.501 418.508Z" stroke="#186FB2"/>
<path d="M361 423C365.5 434.5 382 433.5 382 433.5" stroke="#186FB2" stroke-width="2" stroke-linecap="round"/>
<path d="M358 428C362.5 439.5 379 438.5 379 438.5" stroke="#186FB2" stroke-width="2" stroke-linecap="round"/>
<path d="M355 433C359.5 444.5 376 443.5 376 443.5" stroke="#186FB2" stroke-width="2" stroke-linecap="round"/>
<path d="M352 438C356.5 449.5 373 448.5 373 448.5" stroke="#186FB2" stroke-width="2" stroke-linecap="round"/>
<path d="M349 443C353.5 454.5 370 453.5 370 453.5" stroke="#186FB2" stroke-width="2" stroke-linecap="round"/>
<path d="M346 448C350.5 459.5 367 458.5 367 458.5" stroke="#186FB2" stroke-width="2" stroke-linecap="round"/>
<path d="M343 453C347.5 464.5 364 463.5 364 463.5" stroke="#186FB2" stroke-width="2" stroke-linecap="round"/>
<path d="M340 458C344.5 469.5 361 468.5 361 468.5" stroke="#186FB2" stroke-width="2" stroke-linecap="round"/>
<g filter="url(#filter9_i_1062_21618)">
<path d="M432.543 443.738C431.716 443.197 425.435 440.731 424.508 442.838C423.582 444.944 423.462 445.93 428.217 449.14C432.929 451.675 435.634 451.248 436.561 450.044C437.487 448.84 437.291 447.172 432.543 443.738Z" fill="#186FB2"/>
</g>
<path d="M432.543 443.738C431.716 443.197 425.435 440.731 424.508 442.838C423.582 444.944 423.462 445.93 428.217 449.14C432.929 451.675 435.634 451.248 436.561 450.044C437.487 448.84 437.291 447.172 432.543 443.738Z" stroke="#186FB2"/>
<path d="M422 448C424.571 454.558 434 453.987 434 453.987" stroke="#186FB2" stroke-width="2" stroke-linecap="round"/>
<path d="M420 452C422.571 458.558 432 457.987 432 457.987" stroke="#186FB2" stroke-width="2" stroke-linecap="round"/>
<path d="M418 456C420.571 462.558 430 461.987 430 461.987" stroke="#186FB2" stroke-width="2" stroke-linecap="round"/>
<path d="M416 460C418.571 466.558 428 465.987 428 465.987" stroke="#186FB2" stroke-width="2" stroke-linecap="round"/>
<path d="M414 464C416.571 470.558 426 469.987 426 469.987" stroke="#186FB2" stroke-width="2" stroke-linecap="round"/>
<path d="M412 468C414.571 474.558 424 473.987 424 473.987" stroke="#186FB2" stroke-width="2" stroke-linecap="round"/>
<defs>
<filter id="filter0_i_1062_21618" x="517.554" y="251.773" width="49.9443" height="87.1289" filterUnits="userSpaceOnUse" color-interpolation-filters="sRGB">
<feFlood flood-opacity="0" result="BackgroundImageFix"/>
<feBlend mode="normal" in="SourceGraphic" in2="BackgroundImageFix" result="shape"/>
<feColorMatrix in="SourceAlpha" type="matrix" values="0 0 0 0 0 0 0 0 0 0 0 0 0 0 0 0 0 0 127 0" result="hardAlpha"/>
<feOffset dx="10" dy="10"/>
<feGaussianBlur stdDeviation="5"/>
<feComposite in2="hardAlpha" operator="arithmetic" k2="-1" k3="1"/>
<feColorMatrix type="matrix" values="0 0 0 0 0 0 0 0 0 0 0 0 0 0 0 0 0 0 0.05 0"/>
<feBlend mode="normal" in2="shape" result="effect1_innerShadow_1062_21618"/>
</filter>
<filter id="filter1_i_1062_21618" x="697.763" y="0.328125" width="326.083" height="418.281" filterUnits="userSpaceOnUse" color-interpolation-filters="sRGB">
<feFlood flood-opacity="0" result="BackgroundImageFix"/>
<feBlend mode="normal" in="SourceGraphic" in2="BackgroundImageFix" result="shape"/>
<feColorMatrix in="SourceAlpha" type="matrix" values="0 0 0 0 0 0 0 0 0 0 0 0 0 0 0 0 0 0 127 0" result="hardAlpha"/>
<feOffset dx="10" dy="10"/>
<feGaussianBlur stdDeviation="5"/>
<feComposite in2="hardAlpha" operator="arithmetic" k2="-1" k3="1"/>
<feColorMatrix type="matrix" values="0 0 0 0 0 0 0 0 0 0 0 0 0 0 0 0 0 0 0.05 0"/>
<feBlend mode="normal" in2="shape" result="effect1_innerShadow_1062_21618"/>
</filter>
<filter id="filter2_i_1062_21618" x="242.5" y="272" width="187.304" height="223" filterUnits="userSpaceOnUse" color-interpolation-filters="sRGB">
<feFlood flood-opacity="0" result="BackgroundImageFix"/>
<feBlend mode="normal" in="SourceGraphic" in2="BackgroundImageFix" result="shape"/>
<feColorMatrix in="SourceAlpha" type="matrix" values="0 0 0 0 0 0 0 0 0 0 0 0 0 0 0 0 0 0 127 0" result="hardAlpha"/>
<feOffset dx="10" dy="10"/>
<feGaussianBlur stdDeviation="5"/>
<feComposite in2="hardAlpha" operator="arithmetic" k2="-1" k3="1"/>
<feColorMatrix type="matrix" values="0 0 0 0 0 0 0 0 0 0 0 0 0 0 0 0 0 0 0.05 0"/>
<feBlend mode="normal" in2="shape" result="effect1_innerShadow_1062_21618"/>
</filter>
<filter id="filter3_i_1062_21618" x="418.775" y="213.465" width="69.4888" height="71.6055" filterUnits="userSpaceOnUse" color-interpolation-filters="sRGB">
<feFlood flood-opacity="0" result="BackgroundImageFix"/>
<feBlend mode="normal" in="SourceGraphic" in2="BackgroundImageFix" result="shape"/>
<feColorMatrix in="SourceAlpha" type="matrix" values="0 0 0 0 0 0 0 0 0 0 0 0 0 0 0 0 0 0 127 0" result="hardAlpha"/>
<feOffset dx="10" dy="10"/>
<feGaussianBlur stdDeviation="5"/>
<feComposite in2="hardAlpha" operator="arithmetic" k2="-1" k3="1"/>
<feColorMatrix type="matrix" values="0 0 0 0 0 0 0 0 0 0 0 0 0 0 0 0 0 0 0.05 0"/>
<feBlend mode="normal" in2="shape" result="effect1_innerShadow_1062_21618"/>
</filter>
<filter id="filter4_i_1062_21618" x="242.5" y="136.004" width="270.787" height="88" filterUnits="userSpaceOnUse" color-interpolation-filters="sRGB">
<feFlood flood-opacity="0" result="BackgroundImageFix"/>
<feBlend mode="normal" in="SourceGraphic" in2="BackgroundImageFix" result="shape"/>
<feColorMatrix in="SourceAlpha" type="matrix" values="0 0 0 0 0 0 0 0 0 0 0 0 0 0 0 0 0 0 127 0" result="hardAlpha"/>
<feOffset dx="10" dy="10"/>
<feGaussianBlur stdDeviation="5"/>
<feComposite in2="hardAlpha" operator="arithmetic" k2="-1" k3="1"/>
<feColorMatrix type="matrix" values="0 0 0 0 0 0 0 0 0 0 0 0 0 0 0 0 0 0 0.05 0"/>
<feBlend mode="normal" in2="shape" result="effect1_innerShadow_1062_21618"/>
</filter>
<filter id="filter5_i_1062_21618" x="2.5" y="135.5" width="245.5" height="360" filterUnits="userSpaceOnUse" color-interpolation-filters="sRGB">
<feFlood flood-opacity="0" result="BackgroundImageFix"/>
<feBlend mode="normal" in="SourceGraphic" in2="BackgroundImageFix" result="shape"/>
<feColorMatrix in="SourceAlpha" type="matrix" values="0 0 0 0 0 0 0 0 0 0 0 0 0 0 0 0 0 0 127 0" result="hardAlpha"/>
<feOffset dx="10" dy="10"/>
<feGaussianBlur stdDeviation="5"/>
<feComposite in2="hardAlpha" operator="arithmetic" k2="-1" k3="1"/>
<feColorMatrix type="matrix" values="0 0 0 0 0 0 0 0 0 0 0 0 0 0 0 0 0 0 0.05 0"/>
<feBlend mode="normal" in2="shape" result="effect1_innerShadow_1062_21618"/>
</filter>
<filter id="filter6_i_1062_21618" x="467.708" y="135.332" width="317.237" height="620.105" filterUnits="userSpaceOnUse" color-interpolation-filters="sRGB">
<feFlood flood-opacity="0" result="BackgroundImageFix"/>
<feBlend mode="normal" in="SourceGraphic" in2="BackgroundImageFix" result="shape"/>
<feColorMatrix in="SourceAlpha" type="matrix" values="0 0 0 0 0 0 0 0 0 0 0 0 0 0 0 0 0 0 127 0" result="hardAlpha"/>
<feOffset dx="10" dy="10"/>
<feGaussianBlur stdDeviation="5"/>
<feComposite in2="hardAlpha" operator="arithmetic" k2="-1" k3="1"/>
<feColorMatrix type="matrix" values="0 0 0 0 0 0 0 0 0 0 0 0 0 0 0 0 0 0 0.05 0"/>
<feBlend mode="normal" in2="shape" result="effect1_innerShadow_1062_21618"/>
</filter>
<filter id="filter7_i_1062_21618" x="357.615" y="329.566" width="170.141" height="131.656" filterUnits="userSpaceOnUse" color-interpolation-filters="sRGB">
<feFlood flood-opacity="0" result="BackgroundImageFix"/>
<feBlend mode="normal" in="SourceGraphic" in2="BackgroundImageFix" result="shape"/>
<feColorMatrix in="SourceAlpha" type="matrix" values="0 0 0 0 0 0 0 0 0 0 0 0 0 0 0 0 0 0 127 0" result="hardAlpha"/>
<feOffset dx="10" dy="10"/>
<feGaussianBlur stdDeviation="5"/>
<feComposite in2="hardAlpha" operator="arithmetic" k2="-1" k3="1"/>
<feColorMatrix type="matrix" values="0 0 0 0 0 0 0 0 0 0 0 0 0 0 0 0 0 0 0.05 0"/>
<feBlend mode="normal" in2="shape" result="effect1_innerShadow_1062_21618"/>
</filter>
<filter id="filter8_i_1062_21618" x="363.179" y="415.113" width="32.0334" height="25.9883" filterUnits="userSpaceOnUse" color-interpolation-filters="sRGB">
<feFlood flood-opacity="0" result="BackgroundImageFix"/>
<feBlend mode="normal" in="SourceGraphic" in2="BackgroundImageFix" result="shape"/>
<feColorMatrix in="SourceAlpha" type="matrix" values="0 0 0 0 0 0 0 0 0 0 0 0 0 0 0 0 0 0 127 0" result="hardAlpha"/>
<feOffset dx="10" dy="10"/>
<feGaussianBlur stdDeviation="5"/>
<feComposite in2="hardAlpha" operator="arithmetic" k2="-1" k3="1"/>
<feColorMatrix type="matrix" values="0 0 0 0 0 0 0 0 0 0 0 0 0 0 0 0 0 0 0.05 0"/>
<feBlend mode="normal" in2="shape" result="effect1_innerShadow_1062_21618"/>
</filter>
<filter id="filter9_i_1062_21618" x="423.5" y="441.5" width="24" height="20" filterUnits="userSpaceOnUse" color-interpolation-filters="sRGB">
<feFlood flood-opacity="0" result="BackgroundImageFix"/>
<feBlend mode="normal" in="SourceGraphic" in2="BackgroundImageFix" result="shape"/>
<feColorMatrix in="SourceAlpha" type="matrix" values="0 0 0 0 0 0 0 0 0 0 0 0 0 0 0 0 0 0 127 0" result="hardAlpha"/>
<feOffset dx="10" dy="10"/>
<feGaussianBlur stdDeviation="5"/>
<feComposite in2="hardAlpha" operator="arithmetic" k2="-1" k3="1"/>
<feColorMatrix type="matrix" values="0 0 0 0 0 0 0 0 0 0 0 0 0 0 0 0 0 0 0.05 0"/>
<feBlend mode="normal" in2="shape" result="effect1_innerShadow_1062_21618"/>
</filter>
<clipPath id="clip0_1062_21618">
<rect width="49.0331" height="49.0331" fill="white" transform="translate(892.154 49.5) rotate(26.0064)"/>
</clipPath>
<clipPath id="clip1_1062_21618">
<rect width="49.0331" height="49.0331" fill="white" transform="translate(788.5 49.5) rotate(26.0064)"/>
</clipPath>
<clipPath id="clip2_1062_21618">
<rect width="49.0331" height="49.0331" fill="white" transform="translate(821.5 119.5) rotate(26.0064)"/>
</clipPath>
<clipPath id="clip3_1062_21618">
<rect width="49.0331" height="49.0331" fill="white" transform="translate(932.5 152.5) rotate(26.0064)"/>
</clipPath>
<clipPath id="clip4_1062_21618">
<rect width="49.0331" height="49.0331" fill="white" transform="translate(858.5 209.5) rotate(26.0064)"/>
</clipPath>
<clipPath id="clip5_1062_21618">
<rect width="49.0331" height="49.0331" fill="white" transform="translate(758.5 212.5) rotate(26.0064)"/>
</clipPath>
<clipPath id="clip6_1062_21618">
<rect width="49.0331" height="49.0331" fill="white" transform="translate(741.5 397.5) rotate(26.0064)"/>
</clipPath>
<clipPath id="clip7_1062_21618">
<rect width="49.0331" height="49.0331" fill="white" transform="translate(701.5 341.5) rotate(26.0064)"/>
</clipPath>
<clipPath id="clip8_1062_21618">
<rect width="41.5823" height="41.5823" fill="white" transform="translate(586 438.477) rotate(-19.6406)"/>
</clipPath>
<clipPath id="clip9_1062_21618">
<rect width="41.5823" height="41.5823" fill="white" transform="translate(376.698 438.5) rotate(26.7225)"/>
</clipPath>
<clipPath id="clip10_1062_21618">
<rect width="42.6127" height="42.6127" fill="white" transform="translate(818.685 302.5) rotate(26.0064)"/>
</clipPath>
</defs>
</svg>
